<?xml version="1.0" encoding="UTF-8"?>
<svg width="299px" height="299px" viewBox="0 0 299 299" version="1.1" xmlns="http://www.w3.org/2000/svg" xmlns:xlink="http://www.w3.org/1999/xlink">
    <!-- Generator: Sketch 45.2 (43514) - http://www.bohemiancoding.com/sketch -->
    <title>chaos</title>
    <desc>Created with Sketch.</desc>
    <defs></defs>
    <g id="Page-1" stroke="none" stroke-width="1" fill="none" fill-rule="evenodd">
        <g id="chaos" stroke="#979797">
            <path d="M48.6679688,229.817436 C14.6190376,207.756732 29.6667578,93.9026884 77.5703125,70.0908739 C125.473867,46.2790595 221.67754,110.54213 234.503906,137.442436 C247.330273,164.342743 290.894531,275.840874 150.476563,229.817436 C10.0585938,183.793999 167.796102,28.0035766 194.496094,26.9932177 C221.196086,25.9828588 304.642815,173.442268 249.355469,200.270561 C194.068123,227.098854 26.9047026,148.788162 6.44140625,118.247124 C-14.0218901,87.7060862 107.842507,-6.93129059 141.585938,39.4268114 C175.329368,85.7849135 131.073351,265.15561 99.8046875,267.895561 C68.5360236,270.635513 -23.8110617,105.379061 16.5546875,50.3828125 C56.9204367,-4.61343558 225.112844,-7.63727797 259.453125,50.3828125 C293.793406,108.402903 165.124736,259.966971 150.476563,276.652344 C135.828389,293.337717 159.904986,189.173655 174.460938,147.195313 C189.016889,105.21697 268.359089,110.579678 222.101563,70.0908739 C175.844036,29.6020696 93.6731382,-14.8828155 37.1328125,26.9932177 C-19.4075132,68.8692509 -1.90176991,186.478247 59.2148438,252.703125 C120.331457,318.928003 234.503906,290.703125 259.453125,267.895561 C284.402344,245.087998 268.457031,147.934403 268.457031,105.335938 C268.457031,62.7374717 334.713103,-19.4777019 259.453125,20.3554688 C184.193147,60.1886394 90.4373787,197.589259 69.5703125,210.601563 C48.7032463,223.613866 58.9110055,140.418842 89.8242188,126.132813 C120.737432,111.846783 183.065849,168.758144 185.726563,156.921875 C188.387276,145.085606 86.6387543,98.8172972 99.8046875,81.734375 C112.970621,64.6514528 213.120013,79.2949218 234.503906,93.6328125 C255.887799,107.970703 288.912487,114.773874 222.101563,163.734375" id="Path"></path>
        </g>
    </g>
</svg>